<svg width="18" height="18" viewBox="0 0 18 18" fill="none" xmlns="http://www.w3.org/2000/svg">
<path d="M15.4909 6.84717L15.5132 7.25329C15.5132 7.63804 15.5132 7.59529 15.5132 7.93728C15.5132 11.6138 12.5231 14.1574 8.39492 14.1574C7.85938 14.1574 6.9668 14.1574 6.9668 14.1574C8.10484 15.2261 9.42139 15.8887 11.2512 15.8887C11.6305 15.8887 12.0099 15.846 12.3892 15.8032L15.0446 17.3636V14.7559C16.4951 13.794 17.41 12.3191 17.41 10.6305C17.41 9.13428 16.6736 7.78766 15.4909 6.84717Z" fill="#1A81FF"/>
<path fill-rule="evenodd" clip-rule="evenodd" d="M7.55444 0C11.0181 0 14.5093 2.87363 14.5094 6.40039C14.5094 9.92724 11.7273 12.9316 7.55444 12.9316C7.06343 12.9316 6.05446 12.8538 5.5909 12.7754L2.31833 14.6299V11.4424C0.818353 10.1884 0 8.43809 0 6.40039C0.000118398 2.8737 3.38182 0.000115721 7.55444 0ZM3.39287 5.5C2.67217 5.5 2.08792 6.05964 2.08792 6.75C2.08792 7.44036 2.67217 8 3.39287 8C4.11358 8 4.69782 7.44036 4.69782 6.75C4.69782 6.65285 4.68505 6.55855 4.66316 6.46777C4.66324 6.4629 4.66418 6.45802 4.66418 6.45312C4.66418 6.04747 4.37941 5.72012 3.98622 5.6377C3.80807 5.55033 3.60676 5.5 3.39287 5.5ZM7.04673 5.5C6.32603 5.5 5.74178 6.05964 5.74178 6.75C5.74178 7.44036 6.32603 8 7.04673 8C7.76744 8 8.35168 7.44036 8.35168 6.75C8.35168 6.05964 7.76744 5.5 7.04673 5.5ZM10.7006 5.5C9.97989 5.5 9.39565 6.05964 9.39565 6.75C9.39565 7.44036 9.97989 8 10.7006 8C11.4213 8 12.0055 7.44036 12.0055 6.75C12.0055 6.05964 11.4213 5.5 10.7006 5.5Z" fill="#1A81FF"/>
</svg>
